# xmcd
#
# Track frame offsets:
#	150
#	24806
#	49383
#	73882
#	93926
#	121159
#	146494
#	172689
#	197409
#	226300
#	248201
#	271387
#	290769
#
# Disc length: 4118 seconds
#
# Revision: 0
# Processed by: cddbd v1.5.2PL0 Copyright (c) Steve Scherf et al.
# Submitted via: EasyCDDAExtractor 15.2.5.1
#
DISCID=b210140d
DTITLE=高志坚 - 孤琴-大提琴 DTS
DYEAR=2011
DGENRE=
TTITLE0=天堂
TTITLE1=天脉传奇
TTITLE2=高原红
TTITLE3=蓝色的故乡
TTITLE4=父亲的草原母亲的河
TTITLE5=故乡的牧羊人
TTITLE6=天边
TTITLE7=可爱的一朵玫瑰花
TTITLE8=梦回西藏
TTITLE9=英雄
TTITLE10=岁月中秋
TTITLE11=阿诗玛
TTITLE12=最后的倾诉
EXTD=
EXTT0=
EXTT1=
EXTT2=
EXTT3=
EXTT4=
EXTT5=
EXTT6=
EXTT7=
EXTT8=
EXTT9=
EXTT10=
EXTT11=
EXTT12=
PLAYORDER=
